<svg xmlns="http://www.w3.org/2000/svg" viewBox="0 0 64 64">
<path fill="#297ecc" stroke="#fff" d="M50.7,54.1h-40c-2.2,0-4-1.8-4-4v-40c0-2.2,1.8-4,4-4h40c2.2,0,4,1.8,4,4v40C54.7,52.3,52.9,54.1,50.7,54.1z"/>
<path fill="#333" stroke="#fff" d="M54.5,58.5h-40c-2.2,0-4-1.8-4-4v-40c0-2.2,1.8-4,4-4h40c2.2,0,4,1.8,4,4v40C58.5,56.7,56.7,58.5,54.5,58.5z"/>
<path fill="#fff" stroke="#297ecc" d="M28,19.2v12L41.7,17c0.7-0.7,1.2-1.2,1.7-1.5s1.1-0.5,1.8-0.5c1,0,1.8,0.3,2.4,0.9s0.9,1.3,0.9,2.1c0,1-0.5,2-1.6,3l-8.5,8l9.8,14c0.7,1,1.2,1.8,1.5,2.5s0.5,1.4,0.5,2.1c0,0.8-0.3,1.4-0.9,2S48,50.5,47,50.5c-1,0-1.8-0.2-2.4-0.6s-1.1-1-1.5-1.7s-0.8-1.3-1.1-1.9l-8.2-12.7L28,39.2v7.1c0,1.4-0.3,2.5-1,3.2s-1.5,1-2.5,1c-0.6,0-1.2-0.2-1.7-0.5s-1-0.7-1.3-1.3c-0.2-0.4-0.4-0.9-0.4-1.5S21,45.9,21,44.8V19.2c0-1.4,0.3-2.5,0.9-3.2s1.5-1.1,2.5-1.1c1,0,1.9,0.3,2.5,1S28,17.8,28,19.2z"/>
</svg>