<svg xmlns="http://www.w3.org/2000/svg" viewBox="0 0 64 64">
<g fill="#333" stroke="#fff" stroke-width="3">
<path d="M43.7 51.1h-32c-4.4 0-8-3.6-8-8v-32c0-4.4 3.6-8 8-8h32c4.4 0 8 3.6 8 8v32c0 4.4-3.6 8-8 8z"/>
<path d="M50.5 58.5h-32c-4.4 0-8-3.6-8-8v-32c0-4.4 3.6-8 8-8h32c4.4 0 8 3.6 8 8v32c0 4.4-3.6 8-8 8z"/>
</g>
<path fill="#fff" d="M29 19V31L41 19S44 17 46 19 46 24 46 24L38 32 48 42C50 45 48 47 48 47S46 49 43 47L33 37 29 41V46S29 50 25 50 21 46 21 46V19S21 15 25 15C25 15 29 15 29 19Z"/>
</svg>