<svg xmlns="http://www.w3.org/2000/svg" xmlns:xlink="http://www.w3.org/1999/xlink" id="Layer_1" x="0" y="0" enable-background="new 0 0 64 64" version="1.1" viewBox="0 0 64 64" xml:space="preserve"><style type="text/css">.st0,.st1{fill:#297ecc;stroke:#fff;stroke-width:2;stroke-miterlimit:10}.st1{fill:#333}.st2{fill:none}.st3{fill:#fff;stroke:#297ecc;stroke-width:2;stroke-miterlimit:10}</style><path d="M47.7,51.1h-40c-2.2,0-4-1.8-4-4v-40c0-2.2,1.8-4,4-4h40c2.2,0,4,1.8,4,4v40C51.7,49.3,49.9,51.1,47.7,51.1z" class="st0"/><path d="M54.5,58.5h-40c-2.2,0-4-1.8-4-4v-40c0-2.2,1.8-4,4-4h40c2.2,0,4,1.8,4,4v40C58.5,56.7,56.7,58.5,54.5,58.5z" class="st1"/><g><rect width="40" height="40" x="15" y="15" class="st2"/><path d="M28,19.2v12L41.7,17c0.7-0.7,1.2-1.2,1.7-1.5s1.1-0.5,1.8-0.5c1,0,1.8,0.3,2.4,0.9s0.9,1.3,0.9,2.1 c0,1-0.5,2-1.6,3l-8.5,8l9.8,14c0.7,1,1.2,1.8,1.5,2.5s0.5,1.4,0.5,2.1c0,0.8-0.3,1.4-0.9,2S48,50.5,47,50.5c-1,0-1.8-0.2-2.4-0.6 s-1.1-1-1.5-1.7s-0.8-1.3-1.1-1.9l-8.2-12.7L28,39.2v7.1c0,1.4-0.3,2.5-1,3.2s-1.5,1-2.5,1c-0.6,0-1.2-0.2-1.7-0.5s-1-0.7-1.3-1.3 c-0.2-0.4-0.4-0.9-0.4-1.5S21,45.9,21,44.8V19.2c0-1.4,0.3-2.5,0.9-3.2s1.5-1.1,2.5-1.1c1,0,1.9,0.3,2.5,1S28,17.8,28,19.2z" class="st3"/></g></svg>