<svg xmlns="http://www.w3.org/2000/svg" viewBox="0 0 64 64" >
<g fill="#333" stroke="#fff" stroke-width="3">
<path d="M43.7,51.1h-32c-4.4,0-8-3.6-8-8v-32c0-4.4,3.6-8,8-8h32c4.4,0,8,3.6,8,8v32C51.7,47.5,48.1,51.1,43.7,51.1z"/>
<path d="M50.5,58.5h-32c-4.4,0-8-3.6-8-8v-32c0-4.4,3.6-8,8-8h32c4.4,0,8,3.6,8,8v32C58.5,54.9,54.9,58.5,50.5,58.5z"/>
</g>
<path fill="#fff" d="M28,19.2v12L41.7,17c0.7-0.7,1.2-1.2,1.7-1.5s1.1-0.5,1.8-0.5c1,0,1.8,0.3,2.4,0.9s0.9,1.3,0.9,2.1c0,1-0.5,2-1.6,3l-8.5,8l9.8,14c0.7,1,1.2,1.8,1.5,2.5s0.5,1.4,0.5,2.1c0,0.8-0.3,1.4-0.9,2S48,50.5,47,50.5c-1,0-1.8-0.2-2.4-0.6s-1.1-1-1.5-1.7s-0.8-1.3-1.1-1.9l-8.2-12.7L28,39.2v7.1c0,1.4-0.3,2.5-1,3.2s-1.5,1-2.5,1c-0.6,0-1.2-0.2-1.7-0.5s-1-0.7-1.3-1.3c-0.2-0.4-0.4-0.9-0.4-1.5S21,45.9,21,44.8V19.2c0-1.4,0.3-2.5,0.9-3.2s1.5-1.1,2.5-1.1c1,0,1.9,0.3,2.5,1S28,17.8,28,19.2z"/>
</svg>